<svg width="155" height="50" viewBox="0 0 155 50" fill="none" xmlns="http://www.w3.org/2000/svg">
<path d="M19.1662 13.5C19.1662 13.5 21.8011 16.525 22.9016 18.8086C23.678 20.4198 24.3644 22.3575 24.5598 24.3447C24.7934 24.1172 25.0406 23.8892 25.3029 23.665C27.7883 21.5416 31.1561 21.3059 31.9934 21.2764C32.8131 21.2474 32.9686 21.3464 32.9748 21.3506C33.1894 22.883 33.5318 26.4249 33.1858 28.332C32.8553 30.5782 31.5548 32.6426 29.5061 34.0078C27.8597 35.1048 26.192 35.6919 24.1711 35.8799C21.8355 36.0971 20.3048 35.9531 19.1662 35.9531C18.0278 35.9532 16.4984 36.0971 14.1633 35.8799C12.1422 35.6919 10.4739 35.105 8.82736 34.0078C6.77861 32.6426 5.47812 30.5782 5.14767 28.332C4.8016 26.4249 5.14406 22.883 5.35861 21.3506C5.35861 21.3506 5.5036 21.2764 6.34103 21.2764C7.17894 21.2764 10.5454 21.5421 13.0305 23.665C13.2929 23.8893 13.541 24.1171 13.7746 24.3447C13.97 22.3575 14.6554 20.4198 15.4319 18.8086C16.5266 16.5368 19.1396 13.5306 19.1662 13.5ZM7.53146 23.7578C7.44544 24.8493 7.44383 26.2155 7.64377 27.5752C7.92912 29.5154 8.58776 31.2106 9.7551 32.208C11.038 33.3042 12.8076 33.9118 14.5998 34.1904C15.3683 34.3099 16.116 34.3622 16.7942 34.375C16.7906 34.3621 15.9009 31.1605 14.7951 29.3623C13.7692 27.6941 12.8967 26.7309 11.4709 25.5127C10.1328 24.3695 8.59512 23.9079 7.53146 23.7578ZM30.802 23.7578C29.7383 23.908 28.2006 24.3695 26.8625 25.5127C25.4368 26.7308 24.5651 27.6942 23.5393 29.3623C22.4312 31.164 21.5393 34.375 21.5393 34.375C22.2175 34.3623 22.9651 34.3099 23.7336 34.1904C25.5259 33.9118 27.2954 33.3042 28.5783 32.208C29.7457 31.2106 30.4043 29.5154 30.6897 27.5752C30.8896 26.2155 30.888 24.8493 30.802 23.7578ZM19.1672 16.8184C19.1672 16.8184 18.174 18.3394 17.6701 19.3848C16.8461 21.0947 16.2454 23.0044 16.2453 24.7441C16.2453 24.8621 16.2477 24.9812 16.2531 25.1006C16.2573 25.1916 16.2636 25.2831 16.2707 25.375L16.2737 25.415C16.2796 25.4867 16.2875 25.5587 16.2951 25.6309C16.3045 25.7191 16.3154 25.8077 16.3274 25.8965C16.3729 26.2343 16.4364 26.5772 16.5168 26.9229C16.5384 27.0157 16.5613 27.109 16.5852 27.2021C16.595 27.2405 16.6052 27.279 16.6154 27.3174C16.6403 27.4106 16.6666 27.5043 16.6936 27.5977C16.7072 27.6448 16.7204 27.6921 16.7346 27.7393C16.8201 28.0243 16.9155 28.3096 17.0188 28.5938C17.158 28.9772 17.3099 29.3554 17.4719 29.7246C17.5135 29.8195 17.5568 29.9145 17.5998 30.0088C17.693 30.213 17.7884 30.4145 17.886 30.6123C17.933 30.7078 17.9807 30.8027 18.0285 30.8965C18.0557 30.9498 18.0832 31.0029 18.1106 31.0557C18.145 31.122 18.1804 31.1875 18.2151 31.2529C18.2443 31.3081 18.2726 31.3635 18.302 31.418L18.3498 31.5059C18.4369 31.6656 18.5251 31.8216 18.6125 31.9746C18.7994 32.3014 18.9859 32.6119 19.1672 32.9023C19.3485 32.6119 19.5351 32.3014 19.7219 31.9746C19.8094 31.8216 19.8975 31.6656 19.9846 31.5059L19.9895 31.4961L20.0324 31.418C20.0618 31.3636 20.0901 31.308 20.1194 31.2529C20.1541 31.1875 20.1894 31.122 20.2238 31.0557C20.2512 31.0029 20.2787 30.9498 20.3059 30.8965C20.3537 30.8027 20.4014 30.7078 20.4485 30.6123C20.546 30.4145 20.6414 30.213 20.7346 30.0088C20.7776 29.9145 20.8209 29.8195 20.8625 29.7246C21.0245 29.3554 21.1764 28.9772 21.3156 28.5938C21.4189 28.3096 21.5143 28.0243 21.5998 27.7393C21.614 27.6921 21.6272 27.6448 21.6408 27.5977C21.6678 27.5043 21.6941 27.4106 21.719 27.3174C21.7292 27.279 21.7394 27.2405 21.7492 27.2021C21.7731 27.109 21.796 27.0157 21.8176 26.9229C21.898 26.5772 21.9615 26.2343 22.007 25.8965C22.019 25.8077 22.0299 25.7191 22.0393 25.6309C22.047 25.5587 22.0549 25.4867 22.0608 25.415L22.0637 25.375C22.0708 25.2831 22.0772 25.1916 22.0813 25.1006C22.0867 24.9812 22.0891 24.8621 22.0891 24.7441C22.089 23.0044 21.4883 21.0948 20.6643 19.3848C20.1634 18.3455 19.179 16.8364 19.1672 16.8184Z" fill="#3A6BFC"/>
<path d="M46.2525 34.7502C40.6699 34.7502 37.8228 32.3589 37.8228 28.5273V28.3642H40.8374V28.799C40.8374 30.973 42.1493 32.0599 46.2525 32.0599C49.8254 32.0599 51.0814 31.2991 51.0814 29.5871C51.0814 28.011 50.1324 27.4132 47.7598 26.9784L43.1821 26.2447C40.028 25.7012 37.7949 24.2881 37.7949 21.299C37.7949 18.6631 40.028 16 45.8338 16C51.3047 16 53.789 18.6631 53.789 22.2229V22.3859H50.8023V22.0327C50.8023 19.8044 49.4346 18.6902 45.5547 18.6902C42.1493 18.6902 40.8095 19.5055 40.8095 21.1359C40.8095 22.712 41.7585 23.2283 43.9637 23.6903L48.5135 24.4512C52.2538 25.1033 54.096 26.761 54.096 29.424C54.096 32.1958 51.7793 34.7502 46.2525 34.7502Z" fill="#3A6BFC"/>
<path d="M59.7532 34.7502C56.8782 34.7502 55.0638 33.4458 55.0638 31.2175C55.0638 29.1251 56.7944 28.0382 59.5299 27.7392L65.8382 27.0871V26.299C65.8382 24.0707 64.8333 23.2827 62.1816 23.2827C59.6136 23.2827 58.3575 24.0979 58.3575 26.0816V26.1903H55.3709V26.0816C55.3709 23.0109 57.9947 20.7011 62.4049 20.7011C66.8151 20.7011 68.797 23.0381 68.797 26.2718V34.4784H66.0336V31.1088H65.8382C65.1125 33.3915 62.9073 34.7502 59.7532 34.7502ZM58.0784 31.0273C58.0784 32.1143 58.8321 32.6306 60.5627 32.6306C63.7168 32.6306 65.8382 31.4893 65.8382 28.8262L60.3952 29.424C58.8321 29.6143 58.0784 29.9675 58.0784 31.0273Z" fill="#3A6BFC"/>
<path d="M73.9443 34.4784H70.9297V20.9729H73.693V25.049H73.8605C74.2234 22.7935 75.7307 20.7011 79.1919 20.7011C82.346 20.7011 84.0487 22.5761 84.4395 25.1577H84.607C84.9698 22.8479 86.533 20.7011 90.05 20.7011C93.6507 20.7011 95.4651 23.0925 95.4651 26.3534V34.4784H92.4784V27.1414C92.4784 24.4783 91.3898 23.337 88.7102 23.337C85.7514 23.337 84.6907 24.8044 84.6907 27.7936V34.4784H81.704V27.1414C81.704 24.4783 80.6433 23.337 77.9637 23.337C74.977 23.337 73.9443 24.8044 73.9443 27.7936V34.4784Z" fill="#3A6BFC"/>
<path d="M101.678 34.7502C98.8031 34.7502 96.9887 33.4458 96.9887 31.2175C96.9887 29.1251 98.7193 28.0382 101.455 27.7392L107.763 27.0871V26.299C107.763 24.0707 106.758 23.2827 104.107 23.2827C101.539 23.2827 100.282 24.0979 100.282 26.0816V26.1903H97.2958V26.0816C97.2958 23.0109 99.9196 20.7011 104.33 20.7011C108.74 20.7011 110.722 23.0381 110.722 26.2718V34.4784H107.958V31.1088H107.763C107.037 33.3915 104.832 34.7502 101.678 34.7502ZM100.003 31.0273C100.003 32.1143 100.757 32.6306 102.488 32.6306C105.642 32.6306 107.763 31.4893 107.763 28.8262L102.32 29.424C100.757 29.6143 100.003 29.9675 100.003 31.0273Z" fill="#3A6BFC"/>
<path d="M118.967 34.7502C114.585 34.7502 112.157 31.8969 112.157 27.7392C112.157 23.5272 114.557 20.7011 118.772 20.7011C122.066 20.7011 123.936 22.3588 124.494 24.6414H124.662V16.2717H127.676V34.4784H124.913V30.5925H124.718C124.131 33.2828 122.094 34.7502 118.967 34.7502ZM115.199 27.7392C115.199 30.973 116.902 32.0599 119.889 32.0599C122.847 32.0599 124.662 30.7012 124.662 27.8751V27.6577C124.662 24.7773 122.931 23.3642 119.833 23.3642C116.93 23.3642 115.199 24.4783 115.199 27.7392Z" fill="#3A6BFC"/>
<path d="M132.92 34.4784H129.905V16.2717H132.92V25.1033H133.087C133.562 22.8207 135.265 20.7011 138.81 20.7011C142.634 20.7011 144.504 23.1468 144.504 26.4349V34.4784H141.517V27.1414C141.517 24.424 140.261 23.337 137.386 23.337C134.092 23.337 132.92 25.0762 132.92 27.9295V34.4784Z" fill="#3A6BFC"/>
<path d="M149.671 19.3968H146.656V16.2717H149.671V19.3968ZM149.671 34.4784H146.656V20.9729H149.671V34.4784Z" fill="#3A6BFC"/>
</svg>
