<svg width="140" height="112" viewBox="0 0 140 112" fill="none" xmlns="http://www.w3.org/2000/svg">
<path fill-rule="evenodd" clip-rule="evenodd" d="M69.999 0C70.0539 0.0629833 83.029 14.9708 88.4551 26.2305C92.2919 34.1924 95.6802 43.768 96.6455 53.5879C97.8001 52.4631 99.0233 51.3367 100.32 50.2285C112.601 39.7365 129.24 38.568 133.377 38.4219C137.481 38.277 138.216 38.7828 138.228 38.791C139.288 46.3627 140.98 63.8616 139.271 73.2852C137.638 84.3845 131.212 94.5839 121.088 101.33C112.952 106.751 104.712 109.655 94.7256 110.584C83.1854 111.657 75.6248 110.944 69.999 110.944C64.3732 110.944 56.8149 111.657 45.2744 110.584C35.2879 109.655 27.0476 106.751 18.9121 101.33C8.78831 94.5839 2.36188 84.3845 0.729512 73.2852C-0.980447 63.8616 0.712372 46.3627 1.77248 38.791C1.77248 38.791 2.48616 38.4219 6.62404 38.4219C10.7625 38.4219 27.4003 39.7367 39.6807 50.2285C40.9775 51.3366 42.2 52.4633 43.3545 53.5879C44.3198 43.768 47.7081 34.1924 51.5449 26.2305C56.9822 14.9475 69.999 0 69.999 0ZM12.5078 50.6895C12.0828 56.0831 12.0743 62.8346 13.0625 69.5537C14.4726 79.1402 17.7262 87.516 23.4942 92.4443C29.8334 97.8607 38.5777 100.863 47.4336 102.24C51.231 102.831 54.9253 103.087 58.2764 103.15C58.2607 103.094 53.8617 87.2686 48.3965 78.3818C43.3275 70.1394 39.0193 65.3814 31.9746 59.3623C25.3624 53.7127 17.7639 51.4313 12.5078 50.6895ZM127.491 50.6895C122.235 51.4313 114.638 53.7128 108.025 59.3623C100.981 65.3816 96.6717 70.1392 91.6026 78.3818C86.1358 87.2711 81.7359 103.103 81.7227 103.15C85.0737 103.087 88.7681 102.831 92.5655 102.24C101.421 100.863 110.166 97.8607 116.505 92.4443C122.273 87.516 125.527 79.1395 126.937 69.5527C127.925 62.8338 127.916 56.083 127.491 50.6895ZM69.9981 16.4004C69.974 16.4373 65.0837 23.9312 62.6006 29.084C58.5291 37.5334 55.5609 46.9669 55.5606 55.5635C55.5606 56.1461 55.5759 56.7342 55.6026 57.3242C55.6229 57.7739 55.6532 58.2264 55.6885 58.6807C55.6936 58.7457 55.6988 58.8108 55.7041 58.876C55.7333 59.2304 55.7696 59.5864 55.8076 59.9434C55.8542 60.3804 55.9065 60.819 55.9658 61.2588C56.191 62.9282 56.5079 64.6208 56.9053 66.3291C57.0121 66.7882 57.1251 67.2479 57.2432 67.708C57.292 67.8984 57.3418 68.0896 57.3926 68.2803C57.5152 68.7407 57.6442 69.2011 57.7774 69.6621C57.8447 69.8951 57.9085 70.13 57.9785 70.3633C58.4011 71.7715 58.8738 73.179 59.3838 74.583C60.0721 76.478 60.8245 78.3469 61.625 80.1719C61.8307 80.6407 62.0404 81.1084 62.2529 81.5742C62.7139 82.584 63.1858 83.5806 63.668 84.5586C63.9006 85.0304 64.1359 85.4977 64.3721 85.9609C64.5067 86.2249 64.6428 86.487 64.7783 86.748C64.9488 87.0765 65.1213 87.402 65.293 87.7256C65.4376 87.9982 65.5813 88.27 65.7266 88.5391C65.7962 88.668 65.8658 88.7968 65.9356 88.9248L65.961 88.9717C66.3916 89.7617 66.8271 90.5343 67.2598 91.291C68.1829 92.9058 69.1051 94.438 70.001 95.873C70.8968 94.4381 71.8162 92.9057 72.7393 91.291C73.1719 90.5344 73.6075 89.7616 74.0381 88.9717L74.0645 88.9238C74.1341 88.796 74.204 88.6677 74.2735 88.5391C74.4187 88.2701 74.5615 87.998 74.7061 87.7256C74.8778 87.402 75.0512 87.0765 75.2217 86.748C75.3572 86.4871 75.4925 86.2248 75.627 85.9609C75.8631 85.4977 76.0994 85.0304 76.3321 84.5586C76.8143 83.5807 77.2852 82.584 77.7461 81.5742C77.9587 81.1083 78.1693 80.6408 78.375 80.1719C79.1755 78.3469 79.927 76.478 80.6153 74.583C81.1253 73.1789 81.5989 71.7716 82.0215 70.3633C82.0915 70.13 82.1554 69.8951 82.2227 69.6621C82.3558 69.2012 82.4839 68.7406 82.6065 68.2803C82.6572 68.0896 82.707 67.8984 82.7559 67.708C82.874 67.2478 82.9879 66.7882 83.0947 66.3291C83.4921 64.6208 83.8091 62.9282 84.0342 61.2588C84.0935 60.8189 84.1459 60.3805 84.1924 59.9434C84.2304 59.5864 84.2668 59.2304 84.2959 58.876L84.3115 58.6807C84.3469 58.2264 84.3762 57.7739 84.3965 57.3242C84.4232 56.7342 84.4395 56.1462 84.4395 55.5635C84.4391 46.9668 81.4701 37.5334 77.3985 29.084C74.909 23.9179 69.9981 16.4004 69.9981 16.4004Z" fill="#3A6BFC"/>
</svg>
